<svg width="16" height="17" viewBox="0 0 16 17" fill="none" xmlns="http://www.w3.org/2000/svg">
<path fill-rule="evenodd" clip-rule="evenodd" d="M11.4044 11.5372L15.2124 15.4978C15.5346 15.8329 15.5239 16.3671 15.1891 16.6892C15.0316 16.8409 14.824 16.9243 14.6052 16.9243C14.374 16.9243 14.1583 16.8325 13.998 16.6659L10.161 12.6753C9.07152 13.441 7.79721 13.8443 6.45999 13.8443C2.89801 13.8443 0 10.9463 0 7.38431C0 3.82233 2.89801 0.924316 6.45999 0.924316C10.022 0.924316 12.92 3.82233 12.92 7.38431C12.92 8.90887 12.3835 10.3733 11.4044 11.5372ZM11.2348 7.38431C11.2348 4.75144 9.09286 2.60953 6.45999 2.60953C3.82712 2.60953 1.68522 4.75144 1.68522 7.38431C1.68522 10.0172 3.82712 12.1591 6.45999 12.1591C9.09286 12.1591 11.2348 10.0172 11.2348 7.38431Z" fill="#6C6C6C"/>
</svg>
